<?xml version="1.0" encoding="us-ascii" standalone="no"?><svg xmlns="http://www.w3.org/2000/svg" xmlns:xlink="http://www.w3.org/1999/xlink" contentStyleType="text/css" height="290px" preserveAspectRatio="none" style="width:381px;height:290px;background:#FFFFFF;" version="1.1" viewBox="0 0 381 290" width="381px" zoomAndPan="magnify"><defs/><g><!--entity fe_user--><g id="elem_fe_user"><rect fill="#F1F1F1" height="49.0679" rx="2.5" ry="2.5" style="stroke:#181818;stroke-width:0.5;" width="134" x="17.5" y="7"/><rect fill="#F1F1F1" height="10" style="stroke:#181818;stroke-width:0.5;" width="15" x="131.5" y="12"/><rect fill="#F1F1F1" height="2" style="stroke:#181818;stroke-width:0.5;" width="4" x="129.5" y="14"/><rect fill="#F1F1F1" height="2" style="stroke:#181818;stroke-width:0.5;" width="4" x="129.5" y="18"/><text fill="#000000" font-family="sans-serif" font-size="14" lengthAdjust="spacing" textLength="94" x="32.5" y="41.9659">User frontend</text></g><!--entity fe_admin--><g id="elem_fe_admin"><rect fill="#F1F1F1" height="49.0679" rx="2.5" ry="2.5" style="stroke:#181818;stroke-width:0.5;" width="147" x="7" y="225.13"/><rect fill="#F1F1F1" height="10" style="stroke:#181818;stroke-width:0.5;" width="15" x="134" y="230.13"/><rect fill="#F1F1F1" height="2" style="stroke:#181818;stroke-width:0.5;" width="4" x="132" y="232.13"/><rect fill="#F1F1F1" height="2" style="stroke:#181818;stroke-width:0.5;" width="4" x="132" y="236.13"/><text fill="#000000" font-family="sans-serif" font-size="14" lengthAdjust="spacing" textLength="107" x="22" y="260.0959">Admin frontend</text></g><!--entity be--><g id="elem_be"><rect fill="#F1F1F1" height="49.0679" rx="2.5" ry="2.5" style="stroke:#181818;stroke-width:0.5;" width="97" x="149" y="116.06"/><rect fill="#F1F1F1" height="10" style="stroke:#181818;stroke-width:0.5;" width="15" x="226" y="121.06"/><rect fill="#F1F1F1" height="2" style="stroke:#181818;stroke-width:0.5;" width="4" x="224" y="123.06"/><rect fill="#F1F1F1" height="2" style="stroke:#181818;stroke-width:0.5;" width="4" x="224" y="127.06"/><text fill="#000000" font-family="sans-serif" font-size="14" lengthAdjust="spacing" textLength="57" x="164" y="151.0259">Backend</text></g><!--entity be_user--><g id="elem_be_user"><ellipse cx="197.5" cy="31.53" fill="#F1F1F1" rx="8" ry="8" style="stroke:#181818;stroke-width:0.5;"/><text fill="#000000" font-family="sans-serif" font-size="14" lengthAdjust="spacing" textLength="122" x="136.5" y="63.4959">User API endpoint</text></g><!--entity be_admin--><g id="elem_be_admin"><ellipse cx="198.5" cy="249.67" fill="#F1F1F1" rx="8" ry="8" style="stroke:#181818;stroke-width:0.5;"/><text fill="#000000" font-family="sans-serif" font-size="14" lengthAdjust="spacing" textLength="135" x="131" y="281.6359">Admin API endpoint</text></g><!--entity db--><g id="elem_db"><path d="M281,126.56 C281,116.56 322.5,116.56 322.5,116.56 C322.5,116.56 364,116.56 364,126.56 L364,154.6279 C364,164.6279 322.5,164.6279 322.5,164.6279 C322.5,164.6279 281,164.6279 281,154.6279 L281,126.56 " fill="#F1F1F1" style="stroke:#181818;stroke-width:0.5;"/><path d="M281,126.56 C281,136.56 322.5,136.56 322.5,136.56 C322.5,136.56 364,136.56 364,126.56 " fill="none" style="stroke:#181818;stroke-width:0.5;"/><text fill="#000000" font-family="sans-serif" font-size="14" lengthAdjust="spacing" textLength="63" x="291" y="155.5259">Database</text></g><!--link fe_user to fe_admin--><!--link fe_user to be_user--><g id="link_fe_user_be_user"><path d="M151.59,31.53 C163.79,31.53 175.98,31.53 188.18,31.53 " fill="none" id="fe_user-be_user" style="stroke:#181818;stroke-width:1.0;"/></g><!--link fe_admin to be_admin--><g id="link_fe_admin_be_admin"><path d="M154.25,249.67 C165.89,249.67 177.53,249.67 189.17,249.67 " fill="none" id="fe_admin-be_admin" style="stroke:#181818;stroke-width:1.0;"/></g><!--link be_user to be--><g id="link_be_user_be"><path d="M197.5,40.93 C197.5,56.9 197.5,92.17 197.5,115.92 " fill="none" id="be_user-be" style="stroke:#181818;stroke-width:1.0;"/></g><!--link be to be_admin--><g id="link_be_be_admin"><path d="M197.72,165.63 C197.95,189.55 198.28,224.9 198.42,240.62 " fill="none" id="be-be_admin" style="stroke:#181818;stroke-width:1.0;"/></g><!--link be to db--><g id="link_be_db"><path d="M246.33,140.6 C257.73,140.6 263.14,140.6 274.55,140.6 " fill="none" id="be-to-db" style="stroke:#181818;stroke-width:1.0;stroke-dasharray:7.0,7.0;"/><polygon fill="#181818" points="280.55,140.6,271.55,136.6,275.55,140.6,271.55,144.6,280.55,140.6" style="stroke:#181818;stroke-width:1.0;"/></g><!--SRC=[RS-n2i8m40RWFKznTEdKFe9GSH4gk7GIaKjonQ9DoYL5V7jJczIARib_N_WlolQ3DMGyP8qZXfQjyMHq1kYWfSiOGY7KHrMwxymFmodzSbjKjmGa2T45poqgYaNLSGzXFjWmY2YMhUHSze_6GeqU9Rf0T_7q1beAaTVujAC7PBOF9-9Ve3XTEwt9d7MnMZnl3ZKmtT5trgmm5yjU2QTmVYcJr5Cev8B6U8UIoysqq0i0]--></g></svg>