<?xml version="1.0" encoding="us-ascii" standalone="no"?><svg xmlns="http://www.w3.org/2000/svg" xmlns:xlink="http://www.w3.org/1999/xlink" contentStyleType="text/css" height="687px" preserveAspectRatio="none" style="width:818px;height:687px;background:#FFFFFF;" version="1.1" viewBox="0 0 818 687" width="818px" zoomAndPan="magnify"><defs/><g><!--cluster be--><g id="cluster_be"><path d="M8.5,6.602 L68.5,6.602 A3.75,3.75 0 0 1 71,9.102 L78,31.6699 L808.5,31.6699 A2.5,2.5 0 0 1 811,34.1699 L811,677.782 A2.5,2.5 0 0 1 808.5,680.282 L8.5,680.282 A2.5,2.5 0 0 1 6,677.782 L6,9.102 A2.5,2.5 0 0 1 8.5,6.602 " fill="none" style="stroke:#000000;stroke-width:1.5;"/><line style="stroke:#000000;stroke-width:1.5;" x1="6" x2="78" y1="31.6699" y2="31.6699"/><text fill="#000000" font-family="sans-serif" font-size="14" font-weight="bold" lengthAdjust="spacing" textLength="59" x="10" y="23.5679">Backend</text></g><!--class be_userapi--><g id="elem_be_userapi"><rect codeLine="3" fill="#F1F1F1" height="67.0679" id="be_userapi" rx="2.5" ry="2.5" style="stroke:#181818;stroke-width:0.5;" width="315" x="22.5" y="63.672"/><ellipse cx="119.25" cy="79.672" fill="#B4A7E5" rx="11" ry="11" style="stroke:#181818;stroke-width:1.0;"/><path d="M115.2813,86.172 L115.2813,84.4689 L117.6406,84.2032 L117.6406,76.0001 L115.2813,75.7345 L115.2813,74.0314 L122.4219,74.0314 L122.4219,75.7345 L120,76.0001 L120,84.2032 L122.4219,84.4689 L122.4219,86.172 L115.2813,86.172 Z " fill="#000000"/><text fill="#000000" font-family="sans-serif" font-size="14" font-style="italic" lengthAdjust="spacing" textLength="113" x="139.75" y="85.104">User API endpoint</text><line style="stroke:#181818;stroke-width:0.5;" x1="23.5" x2="336.5" y1="95.672" y2="95.672"/><line style="stroke:#181818;stroke-width:0.5;" x1="23.5" x2="336.5" y1="103.672" y2="103.672"/><text fill="#000000" font-family="sans-serif" font-size="14" lengthAdjust="spacing" textLength="303" x="28.5" y="122.6379">GET /inhalers(query: InhalerQuery) : Inhalers</text></g><!--class be_adminapi--><g id="elem_be_adminapi"><rect codeLine="8" fill="#F1F1F1" height="105.2038" id="be_adminapi" rx="2.5" ry="2.5" style="stroke:#181818;stroke-width:0.5;" width="313" x="482.5" y="44.602"/><ellipse cx="572.25" cy="60.602" fill="#B4A7E5" rx="11" ry="11" style="stroke:#181818;stroke-width:1.0;"/><path d="M568.2813,67.102 L568.2813,65.3989 L570.6406,65.1332 L570.6406,56.9301 L568.2813,56.6645 L568.2813,54.9614 L575.4219,54.9614 L575.4219,56.6645 L573,56.9301 L573,65.1332 L575.4219,65.3989 L575.4219,67.102 L568.2813,67.102 Z " fill="#000000"/><text fill="#000000" font-family="sans-serif" font-size="14" font-style="italic" lengthAdjust="spacing" textLength="125" x="592.75" y="66.034">Admin API endpoint</text><line style="stroke:#181818;stroke-width:0.5;" x1="483.5" x2="794.5" y1="76.602" y2="76.602"/><line style="stroke:#181818;stroke-width:0.5;" x1="483.5" x2="794.5" y1="84.602" y2="84.602"/><text fill="#000000" font-family="sans-serif" font-size="14" lengthAdjust="spacing" textLength="287" x="488.5" y="103.5679">POST /admin (query: AdminQuery) : Admin</text><text fill="#000000" font-family="sans-serif" font-size="14" lengthAdjust="spacing" textLength="278" x="488.5" y="122.6358">PUT /admin (query: AdminQuery) : Admin</text><text fill="#000000" font-family="sans-serif" font-size="14" lengthAdjust="spacing" textLength="301" x="488.5" y="141.7038">DELETE /admin (query: AdminQuery) : Admin</text></g><!--class be_server--><g id="elem_be_server"><rect codeLine="15" fill="#F1F1F1" height="48" id="be_server" rx="2.5" ry="2.5" style="stroke:#181818;stroke-width:0.5;" width="75" x="372.5" y="73.202"/><ellipse cx="387.5" cy="89.202" fill="#ADD1B2" rx="11" ry="11" style="stroke:#181818;stroke-width:1.0;"/><path d="M386.9688,96.1239 Q385.2188,96.1239 384.0781,95.3895 Q382.9531,94.6395 382.3906,93.2957 Q381.8438,91.9364 381.8438,90.1395 Q381.8438,88.1082 382.5,86.6551 Q383.1563,85.202 384.4375,84.4207 Q385.7188,83.6395 387.5938,83.6395 Q388.4844,83.6395 389.1563,83.827 Q389.8281,83.9989 390.5156,84.3426 L389.7031,86.3582 Q389.0781,86.0457 388.5313,85.9207 Q388,85.7957 387.5156,85.7957 Q386.3438,85.7957 385.6406,86.327 Q384.9375,86.8582 384.6406,87.8114 Q384.3438,88.7645 384.3438,90.0301 Q384.3438,92.0457 385.0625,93.0145 Q385.7813,93.9676 387.375,93.9676 Q387.9688,93.9676 388.5938,93.8114 Q389.2188,93.6551 390.0469,93.2801 L390.0469,95.4989 Q389.3125,95.8114 388.5156,95.9676 Q387.7344,96.1239 386.9688,96.1239 Z " fill="#000000"/><text fill="#000000" font-family="sans-serif" font-size="14" lengthAdjust="spacing" textLength="43" x="401.5" y="94.634">Server</text><line style="stroke:#181818;stroke-width:0.5;" x1="373.5" x2="446.5" y1="105.202" y2="105.202"/><line style="stroke:#181818;stroke-width:0.5;" x1="373.5" x2="446.5" y1="113.202" y2="113.202"/></g><!--class be_query_inhalers--><g id="elem_be_query_inhalers"><rect codeLine="20" fill="#F1F1F1" height="48" id="be_query_inhalers" rx="2.5" ry="2.5" style="stroke:#181818;stroke-width:0.5;" width="122" x="98" y="257.412"/><ellipse cx="113" cy="273.412" fill="#ADD1B2" rx="11" ry="11" style="stroke:#181818;stroke-width:1.0;"/><path d="M112.4688,280.3339 Q110.7188,280.3339 109.5781,279.5995 Q108.4531,278.8495 107.8906,277.5057 Q107.3438,276.1464 107.3438,274.3495 Q107.3438,272.3182 108,270.8651 Q108.6563,269.412 109.9375,268.6307 Q111.2188,267.8495 113.0938,267.8495 Q113.9844,267.8495 114.6563,268.037 Q115.3281,268.2089 116.0156,268.5526 L115.2031,270.5682 Q114.5781,270.2557 114.0313,270.1307 Q113.5,270.0057 113.0156,270.0057 Q111.8438,270.0057 111.1406,270.537 Q110.4375,271.0682 110.1406,272.0214 Q109.8438,272.9745 109.8438,274.2401 Q109.8438,276.2557 110.5625,277.2245 Q111.2813,278.1776 112.875,278.1776 Q113.4688,278.1776 114.0938,278.0214 Q114.7188,277.8651 115.5469,277.4901 L115.5469,279.7089 Q114.8125,280.0214 114.0156,280.1776 Q113.2344,280.3339 112.4688,280.3339 Z " fill="#000000"/><text fill="#000000" font-family="sans-serif" font-size="14" lengthAdjust="spacing" textLength="90" x="127" y="278.844">InhalerQuery</text><line style="stroke:#181818;stroke-width:0.5;" x1="99" x2="219" y1="289.412" y2="289.412"/><line style="stroke:#181818;stroke-width:0.5;" x1="99" x2="219" y1="297.412" y2="297.412"/></g><!--class be_query_admin--><g id="elem_be_query_admin"><rect codeLine="25" fill="#F1F1F1" height="48" id="be_query_admin" rx="2.5" ry="2.5" style="stroke:#181818;stroke-width:0.5;" width="117" x="615.5" y="257.412"/><ellipse cx="630.5" cy="273.412" fill="#ADD1B2" rx="11" ry="11" style="stroke:#181818;stroke-width:1.0;"/><path d="M629.9688,280.3339 Q628.2188,280.3339 627.0781,279.5995 Q625.9531,278.8495 625.3906,277.5057 Q624.8438,276.1464 624.8438,274.3495 Q624.8438,272.3182 625.5,270.8651 Q626.1563,269.412 627.4375,268.6307 Q628.7188,267.8495 630.5938,267.8495 Q631.4844,267.8495 632.1563,268.037 Q632.8281,268.2089 633.5156,268.5526 L632.7031,270.5682 Q632.0781,270.2557 631.5313,270.1307 Q631,270.0057 630.5156,270.0057 Q629.3438,270.0057 628.6406,270.537 Q627.9375,271.0682 627.6406,272.0214 Q627.3438,272.9745 627.3438,274.2401 Q627.3438,276.2557 628.0625,277.2245 Q628.7813,278.1776 630.375,278.1776 Q630.9688,278.1776 631.5938,278.0214 Q632.2188,277.8651 633.0469,277.4901 L633.0469,279.7089 Q632.3125,280.0214 631.5156,280.1776 Q630.7344,280.3339 629.9688,280.3339 Z " fill="#000000"/><text fill="#000000" font-family="sans-serif" font-size="14" lengthAdjust="spacing" textLength="85" x="644.5" y="278.844">AdminQuery</text><line style="stroke:#181818;stroke-width:0.5;" x1="616.5" x2="731.5" y1="289.412" y2="289.412"/><line style="stroke:#181818;stroke-width:0.5;" x1="616.5" x2="731.5" y1="297.412" y2="297.412"/></g><!--class be_response--><g id="elem_be_response"><rect codeLine="30" fill="#F1F1F1" height="86.1358" id="be_response" rx="2.5" ry="2.5" style="stroke:#181818;stroke-width:0.5;" width="158" x="255" y="238.342"/><ellipse cx="280.35" cy="254.342" fill="#ADD1B2" rx="11" ry="11" style="stroke:#181818;stroke-width:1.0;"/><path d="M279.8188,261.2639 Q278.0688,261.2639 276.9281,260.5295 Q275.8031,259.7795 275.2406,258.4357 Q274.6938,257.0764 274.6938,255.2795 Q274.6938,253.2482 275.35,251.7951 Q276.0063,250.342 277.2875,249.5607 Q278.5688,248.7795 280.4438,248.7795 Q281.3344,248.7795 282.0063,248.967 Q282.6781,249.1389 283.3656,249.4826 L282.5531,251.4982 Q281.9281,251.1857 281.3813,251.0607 Q280.85,250.9357 280.3656,250.9357 Q279.1938,250.9357 278.4906,251.467 Q277.7875,251.9982 277.4906,252.9514 Q277.1938,253.9045 277.1938,255.1701 Q277.1938,257.1857 277.9125,258.1545 Q278.6313,259.1076 280.225,259.1076 Q280.8188,259.1076 281.4438,258.9514 Q282.0688,258.7951 282.8969,258.4201 L282.8969,260.6389 Q282.1625,260.9514 281.3656,261.1076 Q280.5844,261.2639 279.8188,261.2639 Z " fill="#000000"/><text fill="#000000" font-family="sans-serif" font-size="14" lengthAdjust="spacing" textLength="103" x="296.65" y="259.774">HTTP Response</text><line style="stroke:#181818;stroke-width:0.5;" x1="256" x2="412" y1="270.342" y2="270.342"/><text fill="#000000" font-family="sans-serif" font-size="14" lengthAdjust="spacing" textLength="146" x="261" y="289.3079">header : HTTP header</text><text fill="#000000" font-family="sans-serif" font-size="14" lengthAdjust="spacing" textLength="76" x="261" y="308.3758">data : JSON</text><line style="stroke:#181818;stroke-width:0.5;" x1="256" x2="412" y1="316.4778" y2="316.4778"/></g><!--class be_json--><g id="elem_be_json"><rect codeLine="36" fill="#F1F1F1" height="67.0679" id="be_json" rx="2.5" ry="2.5" style="stroke:#181818;stroke-width:0.5;" width="119" x="305.5" y="413.012"/><ellipse cx="320.5" cy="429.012" fill="#ADD1B2" rx="11" ry="11" style="stroke:#181818;stroke-width:1.0;"/><path d="M319.9688,435.9339 Q318.2188,435.9339 317.0781,435.1995 Q315.9531,434.4495 315.3906,433.1057 Q314.8438,431.7464 314.8438,429.9495 Q314.8438,427.9182 315.5,426.4651 Q316.1563,425.012 317.4375,424.2307 Q318.7188,423.4495 320.5938,423.4495 Q321.4844,423.4495 322.1563,423.637 Q322.8281,423.8089 323.5156,424.1526 L322.7031,426.1682 Q322.0781,425.8557 321.5313,425.7307 Q321,425.6057 320.5156,425.6057 Q319.3438,425.6057 318.6406,426.137 Q317.9375,426.6682 317.6406,427.6214 Q317.3438,428.5745 317.3438,429.8401 Q317.3438,431.8557 318.0625,432.8245 Q318.7813,433.7776 320.375,433.7776 Q320.9688,433.7776 321.5938,433.6214 Q322.2188,433.4651 323.0469,433.0901 L323.0469,435.3089 Q322.3125,435.6214 321.5156,435.7776 Q320.7344,435.9339 319.9688,435.9339 Z " fill="#000000"/><text fill="#000000" font-family="sans-serif" font-size="14" lengthAdjust="spacing" textLength="87" x="334.5" y="434.444">JSON builder</text><line style="stroke:#181818;stroke-width:0.5;" x1="306.5" x2="423.5" y1="445.012" y2="445.012"/><line style="stroke:#181818;stroke-width:0.5;" x1="306.5" x2="423.5" y1="453.012" y2="453.012"/><text fill="#000000" font-family="sans-serif" font-size="14" lengthAdjust="spacing" textLength="64" x="311.5" y="471.9779">getJSON()</text></g><!--class be_admin_handler--><g id="elem_be_admin_handler"><rect codeLine="41" fill="#F1F1F1" height="105.2038" id="be_admin_handler" rx="2.5" ry="2.5" style="stroke:#181818;stroke-width:0.5;" width="133" x="447.5" y="228.802"/><ellipse cx="462.5" cy="244.802" fill="#ADD1B2" rx="11" ry="11" style="stroke:#181818;stroke-width:1.0;"/><path d="M461.9688,251.7239 Q460.2188,251.7239 459.0781,250.9895 Q457.9531,250.2395 457.3906,248.8957 Q456.8438,247.5364 456.8438,245.7395 Q456.8438,243.7082 457.5,242.2551 Q458.1563,240.802 459.4375,240.0207 Q460.7188,239.2395 462.5938,239.2395 Q463.4844,239.2395 464.1563,239.427 Q464.8281,239.5989 465.5156,239.9426 L464.7031,241.9582 Q464.0781,241.6457 463.5313,241.5207 Q463,241.3957 462.5156,241.3957 Q461.3438,241.3957 460.6406,241.927 Q459.9375,242.4582 459.6406,243.4114 Q459.3438,244.3645 459.3438,245.6301 Q459.3438,247.6457 460.0625,248.6145 Q460.7813,249.5676 462.375,249.5676 Q462.9688,249.5676 463.5938,249.4114 Q464.2188,249.2551 465.0469,248.8801 L465.0469,251.0989 Q464.3125,251.4114 463.5156,251.5676 Q462.7344,251.7239 461.9688,251.7239 Z " fill="#000000"/><text fill="#000000" font-family="sans-serif" font-size="14" lengthAdjust="spacing" textLength="101" x="476.5" y="250.234">Admin handler</text><line style="stroke:#181818;stroke-width:0.5;" x1="448.5" x2="579.5" y1="260.802" y2="260.802"/><line style="stroke:#181818;stroke-width:0.5;" x1="448.5" x2="579.5" y1="268.802" y2="268.802"/><text fill="#000000" font-family="sans-serif" font-size="14" lengthAdjust="spacing" textLength="65" x="453.5" y="287.7679">addItem()</text><text fill="#000000" font-family="sans-serif" font-size="14" lengthAdjust="spacing" textLength="65" x="453.5" y="306.8358">editItem()</text><text fill="#000000" font-family="sans-serif" font-size="14" lengthAdjust="spacing" textLength="89" x="453.5" y="325.9038">removeItem()</text></g><!--class be_db_handler--><g id="elem_be_db_handler"><rect codeLine="48" fill="#F1F1F1" height="67.0679" id="be_db_handler" rx="2.5" ry="2.5" style="stroke:#181818;stroke-width:0.5;" width="152" x="392" y="578.142"/><ellipse cx="407" cy="594.142" fill="#ADD1B2" rx="11" ry="11" style="stroke:#181818;stroke-width:1.0;"/><path d="M406.4688,601.0639 Q404.7188,601.0639 403.5781,600.3295 Q402.4531,599.5795 401.8906,598.2357 Q401.3438,596.8764 401.3438,595.0795 Q401.3438,593.0482 402,591.5951 Q402.6563,590.142 403.9375,589.3607 Q405.2188,588.5795 407.0938,588.5795 Q407.9844,588.5795 408.6563,588.767 Q409.3281,588.9389 410.0156,589.2826 L409.2031,591.2982 Q408.5781,590.9857 408.0313,590.8607 Q407.5,590.7357 407.0156,590.7357 Q405.8438,590.7357 405.1406,591.267 Q404.4375,591.7982 404.1406,592.7514 Q403.8438,593.7045 403.8438,594.9701 Q403.8438,596.9857 404.5625,597.9545 Q405.2813,598.9076 406.875,598.9076 Q407.4688,598.9076 408.0938,598.7514 Q408.7188,598.5951 409.5469,598.2201 L409.5469,600.4389 Q408.8125,600.7514 408.0156,600.9076 Q407.2344,601.0639 406.4688,601.0639 Z " fill="#000000"/><text fill="#000000" font-family="sans-serif" font-size="14" lengthAdjust="spacing" textLength="120" x="421" y="599.574">Database handler</text><line style="stroke:#181818;stroke-width:0.5;" x1="393" x2="543" y1="610.142" y2="610.142"/><text fill="#000000" font-family="sans-serif" font-size="14" lengthAdjust="spacing" textLength="74" x="398" y="629.1079">connection</text><line style="stroke:#181818;stroke-width:0.5;" x1="393" x2="543" y1="637.2099" y2="637.2099"/></g><!--class be_db_connection--><g id="elem_be_db_connection"><rect codeLine="53" fill="#F1F1F1" height="105.2038" id="be_db_connection" rx="2.5" ry="2.5" style="stroke:#181818;stroke-width:0.5;" width="173" x="579.5" y="559.082"/><ellipse cx="594.5" cy="575.082" fill="#ADD1B2" rx="11" ry="11" style="stroke:#181818;stroke-width:1.0;"/><path d="M593.9688,582.0039 Q592.2188,582.0039 591.0781,581.2695 Q589.9531,580.5195 589.3906,579.1757 Q588.8438,577.8164 588.8438,576.0195 Q588.8438,573.9882 589.5,572.5351 Q590.1563,571.082 591.4375,570.3007 Q592.7188,569.5195 594.5938,569.5195 Q595.4844,569.5195 596.1563,569.707 Q596.8281,569.8789 597.5156,570.2226 L596.7031,572.2382 Q596.0781,571.9257 595.5313,571.8007 Q595,571.6757 594.5156,571.6757 Q593.3438,571.6757 592.6406,572.207 Q591.9375,572.7382 591.6406,573.6914 Q591.3438,574.6445 591.3438,575.9101 Q591.3438,577.9257 592.0625,578.8945 Q592.7813,579.8476 594.375,579.8476 Q594.9688,579.8476 595.5938,579.6914 Q596.2188,579.5351 597.0469,579.1601 L597.0469,581.3789 Q596.3125,581.6914 595.5156,581.8476 Q594.7344,582.0039 593.9688,582.0039 Z " fill="#000000"/><text fill="#000000" font-family="sans-serif" font-size="14" lengthAdjust="spacing" textLength="141" x="608.5" y="580.514">Database connection</text><line style="stroke:#181818;stroke-width:0.5;" x1="580.5" x2="751.5" y1="591.082" y2="591.082"/><text fill="#000000" font-family="sans-serif" font-size="14" lengthAdjust="spacing" textLength="48" x="585.5" y="610.0479">dbHost</text><text fill="#000000" font-family="sans-serif" font-size="14" lengthAdjust="spacing" textLength="49" x="585.5" y="629.1158">dbUser</text><text fill="#000000" font-family="sans-serif" font-size="14" lengthAdjust="spacing" textLength="82" x="585.5" y="648.1838">dbPassword</text><line style="stroke:#181818;stroke-width:0.5;" x1="580.5" x2="751.5" y1="656.2857" y2="656.2857"/></g><!--link be_response to be_admin_handler--><!--link be_db_handler to be_db_connection--><!--reverse link be_db_handler to be_db_connection--><g id="link_be_db_handler_be_db_connection"><path codeLine="84" d="M556.0991,586.4711 C567.8391,585.1011 567.66,586.182 579.4,586.922 " fill="none" id="be_db_handler-backto-be_db_connection" style="stroke:#181818;stroke-width:1.0;"/><polygon fill="#181818" points="544.18,587.862,550.6032,591.1396,556.0991,586.4711,549.6759,583.1935,544.18,587.862" style="stroke:#181818;stroke-width:1.0;"/><text fill="#000000" font-family="sans-serif" font-size="13" lengthAdjust="spacing" textLength="7" x="552.0235" y="581.6128">*</text><text fill="#000000" font-family="sans-serif" font-size="13" lengthAdjust="spacing" textLength="7" x="564.3755" y="580.888">1</text></g><!--reverse link be_userapi to be_server--><g id="link_be_userapi_be_server"><path codeLine="68" d="M355.68,97.202 C367.16,97.202 360.65,97.202 372.14,97.202 " fill="none" id="be_userapi-backto-be_server" style="stroke:#181818;stroke-width:1.0;stroke-dasharray:7.0,7.0;"/><polygon fill="none" points="337.68,97.202,355.68,103.202,355.68,91.202,337.68,97.202" style="stroke:#181818;stroke-width:1.0;"/></g><!--link be_server to be_adminapi--><g id="link_be_server_be_adminapi"><path codeLine="69" d="M447.57,97.202 C459.16,97.202 452.75,97.202 464.34,97.202 " fill="none" id="be_server-to-be_adminapi" style="stroke:#181818;stroke-width:1.0;stroke-dasharray:7.0,7.0;"/><polygon fill="none" points="482.34,97.202,464.34,91.202,464.34,103.202,482.34,97.202" style="stroke:#181818;stroke-width:1.0;"/></g><!--link be_userapi to be_query_inhalers--><g id="link_be_userapi_be_query_inhalers"><path codeLine="71" d="M176.2,131.202 C172.01,167.502 166.0757,218.9713 162.3957,250.9613 " fill="none" id="be_userapi-to-be_query_inhalers" style="stroke:#181818;stroke-width:1.0;stroke-dasharray:7.0,7.0;"/><polygon fill="#181818" points="161.71,256.922,166.7123,248.4381,162.2814,251.9547,158.7647,247.5238,161.71,256.922" style="stroke:#181818;stroke-width:1.0;"/><text fill="#000000" font-family="sans-serif" font-size="13" lengthAdjust="spacing" textLength="35" x="171.13" y="194.699">&#171;use&#187;</text></g><!--link be_adminapi to be_query_admin--><g id="link_be_adminapi_be_query_admin"><path codeLine="73" d="M648.94,149.932 C655.73,185.282 663.2681,224.5297 668.4281,251.3897 " fill="none" id="be_adminapi-to-be_query_admin" style="stroke:#181818;stroke-width:1.0;stroke-dasharray:7.0,7.0;"/><polygon fill="#181818" points="669.56,257.282,671.7903,247.689,668.6167,252.3718,663.9339,249.1982,669.56,257.282" style="stroke:#181818;stroke-width:1.0;"/><text fill="#000000" font-family="sans-serif" font-size="13" lengthAdjust="spacing" textLength="35" x="658.55" y="194.699">&#171;use&#187;</text></g><!--link be_server to be_response--><g id="link_be_server_be_response"><path codeLine="75" d="M400.22,121.652 C387.99,150.962 366.83,201.692 351.72,237.922 " fill="none" id="be_server-be_response" style="stroke:#181818;stroke-width:1.0;"/></g><!--link be_server to be_admin_handler--><g id="link_be_server_be_admin_handler"><path codeLine="76" d="M423.38,121.652 C438.69,148.472 464.22,193.202 484.29,228.362 " fill="none" id="be_server-be_admin_handler" style="stroke:#181818;stroke-width:1.0;"/></g><!--link be_response to be_json--><g id="link_be_response_be_json"><path codeLine="78" d="M342.06,324.842 C347.27,352.222 352.8085,381.4177 357.6185,406.6977 " fill="none" id="be_response-to-be_json" style="stroke:#181818;stroke-width:1.0;stroke-dasharray:7.0,7.0;"/><polygon fill="#181818" points="358.74,412.592,360.9873,403.0029,357.8054,407.6801,353.1283,404.4983,358.74,412.592" style="stroke:#181818;stroke-width:1.0;"/><text fill="#000000" font-family="sans-serif" font-size="13" lengthAdjust="spacing" textLength="35" x="353.28" y="378.909">&#171;use&#187;</text></g><!--link be_json to be_db_handler--><g id="link_be_json_be_db_handler"><path codeLine="80" d="M385.84,480.562 C403.71,508.862 426.1262,544.359 443.9862,572.639 " fill="none" id="be_json-to-be_db_handler" style="stroke:#181818;stroke-width:1.0;stroke-dasharray:7.0,7.0;"/><polygon fill="#181818" points="447.19,577.712,445.7663,567.9666,444.5201,573.4845,439.0023,572.2383,447.19,577.712" style="stroke:#181818;stroke-width:1.0;"/><text fill="#000000" font-family="sans-serif" font-size="13" lengthAdjust="spacing" textLength="35" x="414.41" y="524.979">&#171;use&#187;</text></g><!--link be_admin_handler to be_db_handler--><g id="link_be_admin_handler_be_db_handler"><path codeLine="82" d="M506.71,334.422 C497.14,402.762 481.4326,514.83 473.4326,571.92 " fill="none" id="be_admin_handler-to-be_db_handler" style="stroke:#181818;stroke-width:1.0;stroke-dasharray:7.0,7.0;"/><polygon fill="#181818" points="472.6,577.862,477.8103,569.5042,473.2939,572.9104,469.8877,568.394,472.6,577.862" style="stroke:#181818;stroke-width:1.0;"/><text fill="#000000" font-family="sans-serif" font-size="13" lengthAdjust="spacing" textLength="35" x="496.57" y="451.939">&#171;use&#187;</text></g><!--SRC=[bLHDRzim3BtxLn2-z0D8XbsB84271cs6R4sRv3GC0MsnZJP7oYIdHR7slrTIP5kMtNNLoUHxZuzYgEmm_utt1EaNyq62fO0QCah-9c0E5oMfEymDljAau7m-1KFQIGDuvdfl0Dnnnp-exBcSBE4J5niiIEdZFtjIJsSmFSGtDZg1EjPEzPB4bkTioqMl9rgaQpg_NXXN1qBbwOhKZYvg-AiFqIyciyboyhyAVv-yGAqXNP1w85Nrhrtak-zXXuEgDCvkpSEHzMgRVjfAh3lhbLqjbtEu9RsJGbEbL3wEvhmXP6ORpi293b4DCYpHG5yNrzzxR6mQiZqlM3EDNrgAoE6UIiiyFddhWh11mOgcXhlTsYUZOiZOjAIjBsOFCLv6AKLR-K11icrwOMwLeQRObsLlcEPI2CfBBiM_gZMie60aRMgox4hgCWZjemp2kId-A1NpZiRpQ8PFSby2AYKVTHByf33uiU6CaVYf1jq19gshnTnsZydHwjlCpAz06sgdzNyAC7eUgc6myVKNcFppkFMMGzsG3SVTfJThDHePodZio9KoOX-UPvlgJGTiq5hh3jATGZsloiHkQrJTfIey65jFkpNsBZq0qjCKJcs7wUUqE_zN]--></g></svg>