<?xml version="1.0" encoding="us-ascii" standalone="no"?><svg xmlns="http://www.w3.org/2000/svg" xmlns:xlink="http://www.w3.org/1999/xlink" contentStyleType="text/css" height="415px" preserveAspectRatio="none" style="width:741px;height:415px;background:#FFFFFF;" version="1.1" viewBox="0 0 741 415" width="741px" zoomAndPan="magnify"><defs/><g><!--cluster fe--><g id="cluster_fe"><path d="M8.5,6.602 L106.5,6.602 A3.75,3.75 0 0 1 109,9.102 L116,31.6699 L344.5,31.6699 A2.5,2.5 0 0 1 347,34.1699 L347,405.632 A2.5,2.5 0 0 1 344.5,408.132 L8.5,408.132 A2.5,2.5 0 0 1 6,405.632 L6,9.102 A2.5,2.5 0 0 1 8.5,6.602 " fill="none" style="stroke:#000000;stroke-width:1.5;"/><line style="stroke:#000000;stroke-width:1.5;" x1="6" x2="116" y1="31.6699" y2="31.6699"/><text fill="#000000" font-family="sans-serif" font-size="14" font-weight="bold" lengthAdjust="spacing" textLength="97" x="10" y="23.5679">User frontend</text></g><!--cluster pages--><g id="cluster_pages"><path d="M32.5,52.602 L109.5,52.602 A3.75,3.75 0 0 1 112,55.102 L119,77.6699 L191.5,77.6699 A2.5,2.5 0 0 1 194,80.1699 L194,381.632 A2.5,2.5 0 0 1 191.5,384.132 L32.5,384.132 A2.5,2.5 0 0 1 30,381.632 L30,55.102 A2.5,2.5 0 0 1 32.5,52.602 " fill="none" style="stroke:#000000;stroke-width:1.5;"/><line style="stroke:#000000;stroke-width:1.5;" x1="30" x2="119" y1="77.6699" y2="77.6699"/><text fill="#000000" font-family="sans-serif" font-size="14" font-weight="bold" lengthAdjust="spacing" textLength="76" x="34" y="69.5679">Web pages</text></g><!--cluster be--><g id="cluster_be"><path d="M388.5,43.062 L448.5,43.062 A3.75,3.75 0 0 1 451,45.562 L458,68.1299 L731.5,68.1299 A2.5,2.5 0 0 1 734,70.6299 L734,161.632 A2.5,2.5 0 0 1 731.5,164.132 L388.5,164.132 A2.5,2.5 0 0 1 386,161.632 L386,45.562 A2.5,2.5 0 0 1 388.5,43.062 " fill="none" style="stroke:#000000;stroke-width:1.5;"/><line style="stroke:#000000;stroke-width:1.5;" x1="386" x2="458" y1="68.1299" y2="68.1299"/><text fill="#000000" font-family="sans-serif" font-size="14" font-weight="bold" lengthAdjust="spacing" textLength="59" x="390" y="60.0279">Backend</text></g><!--class fe_apiclient--><g id="elem_fe_apiclient"><rect codeLine="22" fill="#F1F1F1" height="48" id="fe_apiclient" rx="2.5" ry="2.5" style="stroke:#181818;stroke-width:0.5;" width="95" x="236.5" y="90.602"/><ellipse cx="251.5" cy="106.602" fill="#ADD1B2" rx="11" ry="11" style="stroke:#181818;stroke-width:1.0;"/><path d="M250.9688,113.5239 Q249.2188,113.5239 248.0781,112.7895 Q246.9531,112.0395 246.3906,110.6957 Q245.8438,109.3364 245.8438,107.5395 Q245.8438,105.5082 246.5,104.0551 Q247.1563,102.602 248.4375,101.8207 Q249.7188,101.0395 251.5938,101.0395 Q252.4844,101.0395 253.1563,101.227 Q253.8281,101.3989 254.5156,101.7426 L253.7031,103.7582 Q253.0781,103.4457 252.5313,103.3207 Q252,103.1957 251.5156,103.1957 Q250.3438,103.1957 249.6406,103.727 Q248.9375,104.2582 248.6406,105.2114 Q248.3438,106.1645 248.3438,107.4301 Q248.3438,109.4457 249.0625,110.4145 Q249.7813,111.3676 251.375,111.3676 Q251.9688,111.3676 252.5938,111.2114 Q253.2188,111.0551 254.0469,110.6801 L254.0469,112.8989 Q253.3125,113.2114 252.5156,113.3676 Q251.7344,113.5239 250.9688,113.5239 Z " fill="#000000"/><text fill="#000000" font-family="sans-serif" font-size="14" lengthAdjust="spacing" textLength="63" x="265.5" y="112.034">API client</text><line style="stroke:#181818;stroke-width:0.5;" x1="237.5" x2="330.5" y1="122.602" y2="122.602"/><line style="stroke:#181818;stroke-width:0.5;" x1="237.5" x2="330.5" y1="130.602" y2="130.602"/></g><!--class fe_page_inhalers--><g id="elem_fe_page_inhalers"><rect codeLine="5" fill="#F1F1F1" height="48" id="fe_page_inhalers" rx="2.5" ry="2.5" style="stroke:#181818;stroke-width:0.5;" width="119" x="46.5" y="90.602"/><ellipse cx="61.5" cy="106.602" fill="#ADD1B2" rx="11" ry="11" style="stroke:#181818;stroke-width:1.0;"/><path d="M60.9688,113.5239 Q59.2188,113.5239 58.0781,112.7895 Q56.9531,112.0395 56.3906,110.6957 Q55.8438,109.3364 55.8438,107.5395 Q55.8438,105.5082 56.5,104.0551 Q57.1563,102.602 58.4375,101.8207 Q59.7188,101.0395 61.5938,101.0395 Q62.4844,101.0395 63.1563,101.227 Q63.8281,101.3989 64.5156,101.7426 L63.7031,103.7582 Q63.0781,103.4457 62.5313,103.3207 Q62,103.1957 61.5156,103.1957 Q60.3438,103.1957 59.6406,103.727 Q58.9375,104.2582 58.6406,105.2114 Q58.3438,106.1645 58.3438,107.4301 Q58.3438,109.4457 59.0625,110.4145 Q59.7813,111.3676 61.375,111.3676 Q61.9688,111.3676 62.5938,111.2114 Q63.2188,111.0551 64.0469,110.6801 L64.0469,112.8989 Q63.3125,113.2114 62.5156,113.3676 Q61.7344,113.5239 60.9688,113.5239 Z " fill="#000000"/><text fill="#000000" font-family="sans-serif" font-size="14" lengthAdjust="spacing" textLength="87" x="75.5" y="112.034">Inhaler page</text><line style="stroke:#181818;stroke-width:0.5;" x1="47.5" x2="164.5" y1="122.602" y2="122.602"/><line style="stroke:#181818;stroke-width:0.5;" x1="47.5" x2="164.5" y1="130.602" y2="130.602"/></g><!--class fe_page_info--><g id="elem_fe_page_info"><rect codeLine="10" fill="#F1F1F1" height="48" id="fe_page_info" rx="2.5" ry="2.5" style="stroke:#181818;stroke-width:0.5;" width="97" x="61.5" y="211.132"/><ellipse cx="76.5" cy="227.132" fill="#ADD1B2" rx="11" ry="11" style="stroke:#181818;stroke-width:1.0;"/><path d="M75.9688,234.0539 Q74.2188,234.0539 73.0781,233.3195 Q71.9531,232.5695 71.3906,231.2257 Q70.8438,229.8664 70.8438,228.0695 Q70.8438,226.0382 71.5,224.5851 Q72.1563,223.132 73.4375,222.3507 Q74.7188,221.5695 76.5938,221.5695 Q77.4844,221.5695 78.1563,221.757 Q78.8281,221.9289 79.5156,222.2726 L78.7031,224.2882 Q78.0781,223.9757 77.5313,223.8507 Q77,223.7257 76.5156,223.7257 Q75.3438,223.7257 74.6406,224.257 Q73.9375,224.7882 73.6406,225.7414 Q73.3438,226.6945 73.3438,227.9601 Q73.3438,229.9757 74.0625,230.9445 Q74.7813,231.8976 76.375,231.8976 Q76.9688,231.8976 77.5938,231.7414 Q78.2188,231.5851 79.0469,231.2101 L79.0469,233.4289 Q78.3125,233.7414 77.5156,233.8976 Q76.7344,234.0539 75.9688,234.0539 Z " fill="#000000"/><text fill="#000000" font-family="sans-serif" font-size="14" lengthAdjust="spacing" textLength="65" x="90.5" y="232.564">Info page</text><line style="stroke:#181818;stroke-width:0.5;" x1="62.5" x2="157.5" y1="243.132" y2="243.132"/><line style="stroke:#181818;stroke-width:0.5;" x1="62.5" x2="157.5" y1="251.132" y2="251.132"/></g><!--class fe_page_feedback--><g id="elem_fe_page_feedback"><rect codeLine="15" fill="#F1F1F1" height="48" id="fe_page_feedback" rx="2.5" ry="2.5" style="stroke:#181818;stroke-width:0.5;" width="133" x="45.5" y="320.132"/><ellipse cx="60.5" cy="336.132" fill="#ADD1B2" rx="11" ry="11" style="stroke:#181818;stroke-width:1.0;"/><path d="M59.9688,343.0539 Q58.2188,343.0539 57.0781,342.3195 Q55.9531,341.5695 55.3906,340.2257 Q54.8438,338.8664 54.8438,337.0695 Q54.8438,335.0382 55.5,333.5851 Q56.1563,332.132 57.4375,331.3507 Q58.7188,330.5695 60.5938,330.5695 Q61.4844,330.5695 62.1563,330.757 Q62.8281,330.9289 63.5156,331.2726 L62.7031,333.2882 Q62.0781,332.9757 61.5313,332.8507 Q61,332.7257 60.5156,332.7257 Q59.3438,332.7257 58.6406,333.257 Q57.9375,333.7882 57.6406,334.7414 Q57.3438,335.6945 57.3438,336.9601 Q57.3438,338.9757 58.0625,339.9445 Q58.7813,340.8976 60.375,340.8976 Q60.9688,340.8976 61.5938,340.7414 Q62.2188,340.5851 63.0469,340.2101 L63.0469,342.4289 Q62.3125,342.7414 61.5156,342.8976 Q60.7344,343.0539 59.9688,343.0539 Z " fill="#000000"/><text fill="#000000" font-family="sans-serif" font-size="14" lengthAdjust="spacing" textLength="101" x="74.5" y="341.564">Feedback page</text><line style="stroke:#181818;stroke-width:0.5;" x1="46.5" x2="177.5" y1="352.132" y2="352.132"/><line style="stroke:#181818;stroke-width:0.5;" x1="46.5" x2="177.5" y1="360.132" y2="360.132"/></g><!--class be_userapi--><g id="elem_be_userapi"><rect codeLine="30" fill="#F1F1F1" height="67.0679" id="be_userapi" rx="2.5" ry="2.5" style="stroke:#181818;stroke-width:0.5;" width="315" x="402.5" y="81.062"/><ellipse cx="499.25" cy="97.062" fill="#B4A7E5" rx="11" ry="11" style="stroke:#181818;stroke-width:1.0;"/><path d="M495.2813,103.562 L495.2813,101.8589 L497.6406,101.5932 L497.6406,93.3901 L495.2813,93.1245 L495.2813,91.4214 L502.4219,91.4214 L502.4219,93.1245 L500,93.3901 L500,101.5932 L502.4219,101.8589 L502.4219,103.562 L495.2813,103.562 Z " fill="#000000"/><text fill="#000000" font-family="sans-serif" font-size="14" font-style="italic" lengthAdjust="spacing" textLength="113" x="519.75" y="102.494">User API endpoint</text><line style="stroke:#181818;stroke-width:0.5;" x1="403.5" x2="716.5" y1="113.062" y2="113.062"/><line style="stroke:#181818;stroke-width:0.5;" x1="403.5" x2="716.5" y1="121.062" y2="121.062"/><text fill="#000000" font-family="sans-serif" font-size="14" lengthAdjust="spacing" textLength="303" x="408.5" y="140.0279">GET /inhalers(query: InhalerQuery) : Inhalers</text></g><!--link fe_page_inhalers to fe_page_info--><!--link fe_page_info to fe_page_feedback--><!--link fe_page_inhalers to fe_apiclient--><g id="link_fe_page_inhalers_fe_apiclient"><path codeLine="42" d="M165.77,114.602 C188.69,114.602 208.53,114.602 230.19,114.602 " fill="none" id="fe_page_inhalers-to-fe_apiclient" style="stroke:#181818;stroke-width:1.0;stroke-dasharray:7.0,7.0;"/><polygon fill="#181818" points="236.19,114.602,227.19,110.602,231.19,114.602,227.19,118.602,236.19,114.602" style="stroke:#181818;stroke-width:1.0;"/><text fill="#000000" font-family="sans-serif" font-size="13" lengthAdjust="spacing" textLength="35" x="183.5" y="107.499">&#171;use&#187;</text></g><!--link fe_apiclient to be_userapi--><g id="link_fe_apiclient_be_userapi"><path codeLine="43" d="M331.76,114.602 C351.89,114.602 370.59,114.602 396.22,114.602 " fill="none" id="fe_apiclient-to-be_userapi" style="stroke:#181818;stroke-width:1.0;stroke-dasharray:7.0,7.0;"/><polygon fill="#181818" points="402.22,114.602,393.22,110.602,397.22,114.602,393.22,118.602,402.22,114.602" style="stroke:#181818;stroke-width:1.0;"/><text fill="#000000" font-family="sans-serif" font-size="13" lengthAdjust="spacing" textLength="35" x="349.5" y="107.499">&#171;use&#187;</text></g><!--SRC=[ZP7FIyCm5CVl-IiUlQY7pRkCWeBAO8A2muD8ITkNBLYIchJ86FlVVMcJjDrwC8VmVdpppSidDI- - -GuXsLeq88nM3Qeo0Mv183ioe5K7pGVcbEpGTlqkwWIzpAsYujP2ibPxNf6VatYlpCMPx1is7ZYo69xOfOtGSnv2_-_y4sAPq_2N7i9tvds6lQzwk_lNDOKILHEyU2tx0Xjvd1XD4fazK128ve6e9Cf6y29mTyuaghNqtZbcBJN8_mpmy-Cxt0QArpyjciCTUDnlBhk1cDjXdAiDF-Ys0MwC_hNi_3jWyRcNPOdggrnCEO-JMLKaIPTiNpPWiEADr6hcagLPfXDgDEfgHUzCKpOfTy81mKZs1m00]--></g></svg>