<?xml version="1.0" encoding="us-ascii" standalone="no"?><svg xmlns="http://www.w3.org/2000/svg" xmlns:xlink="http://www.w3.org/1999/xlink" contentStyleType="text/css" height="606px" preserveAspectRatio="none" style="width:816px;height:606px;background:#FFFFFF;" version="1.1" viewBox="0 0 816 606" width="816px" zoomAndPan="magnify"><defs/><g><!--cluster fe--><g id="cluster_fe"><path d="M8.5,6.602 L120.5,6.602 A3.75,3.75 0 0 1 123,9.102 L130,31.6699 L421.5,31.6699 A2.5,2.5 0 0 1 424,34.1699 L424,592.772 A2.5,2.5 0 0 1 421.5,595.272 L8.5,595.272 A2.5,2.5 0 0 1 6,592.772 L6,9.102 A2.5,2.5 0 0 1 8.5,6.602 " fill="none" style="stroke:#000000;stroke-width:1.5;"/><line style="stroke:#000000;stroke-width:1.5;" x1="6" x2="130" y1="31.6699" y2="31.6699"/><text fill="#000000" font-family="sans-serif" font-size="14" font-weight="bold" lengthAdjust="spacing" textLength="111" x="10" y="23.5679">Admin frontend</text></g><!--cluster pages--><g id="cluster_pages"><path d="M32.5,52.602 L109.5,52.602 A3.75,3.75 0 0 1 112,55.102 L119,77.6699 L207.5,77.6699 A2.5,2.5 0 0 1 210,80.1699 L210,568.772 A2.5,2.5 0 0 1 207.5,571.272 L32.5,571.272 A2.5,2.5 0 0 1 30,568.772 L30,55.102 A2.5,2.5 0 0 1 32.5,52.602 " fill="none" style="stroke:#000000;stroke-width:1.5;"/><line style="stroke:#000000;stroke-width:1.5;" x1="30" x2="119" y1="77.6699" y2="77.6699"/><text fill="#000000" font-family="sans-serif" font-size="14" font-weight="bold" lengthAdjust="spacing" textLength="76" x="34" y="69.5679">Web pages</text></g><!--cluster be--><g id="cluster_be"><path d="M463.5,294.602 L523.5,294.602 A3.75,3.75 0 0 1 526,297.102 L533,319.6699 L806.5,319.6699 A2.5,2.5 0 0 1 809,322.1699 L809,597.372 A2.5,2.5 0 0 1 806.5,599.872 L463.5,599.872 A2.5,2.5 0 0 1 461,597.372 L461,297.102 A2.5,2.5 0 0 1 463.5,294.602 " fill="none" style="stroke:#000000;stroke-width:1.5;"/><line style="stroke:#000000;stroke-width:1.5;" x1="461" x2="533" y1="319.6699" y2="319.6699"/><text fill="#000000" font-family="sans-serif" font-size="14" font-weight="bold" lengthAdjust="spacing" textLength="59" x="465" y="311.5679">Backend</text></g><!--class fe_admin_apiclient--><g id="elem_fe_admin_apiclient"><rect codeLine="27" fill="#F1F1F1" height="48" id="fe_admin_apiclient" rx="2.5" ry="2.5" style="stroke:#181818;stroke-width:0.5;" width="143" x="265.5" y="507.272"/><ellipse cx="280.5" cy="523.272" fill="#ADD1B2" rx="11" ry="11" style="stroke:#181818;stroke-width:1.0;"/><path d="M279.9688,530.1939 Q278.2188,530.1939 277.0781,529.4595 Q275.9531,528.7095 275.3906,527.3657 Q274.8438,526.0064 274.8438,524.2095 Q274.8438,522.1782 275.5,520.7251 Q276.1563,519.272 277.4375,518.4907 Q278.7188,517.7095 280.5938,517.7095 Q281.4844,517.7095 282.1563,517.897 Q282.8281,518.0689 283.5156,518.4126 L282.7031,520.4282 Q282.0781,520.1157 281.5313,519.9907 Q281,519.8657 280.5156,519.8657 Q279.3438,519.8657 278.6406,520.397 Q277.9375,520.9282 277.6406,521.8814 Q277.3438,522.8345 277.3438,524.1001 Q277.3438,526.1157 278.0625,527.0845 Q278.7813,528.0376 280.375,528.0376 Q280.9688,528.0376 281.5938,527.8814 Q282.2188,527.7251 283.0469,527.3501 L283.0469,529.5689 Q282.3125,529.8814 281.5156,530.0376 Q280.7344,530.1939 279.9688,530.1939 Z " fill="#000000"/><text fill="#000000" font-family="sans-serif" font-size="14" lengthAdjust="spacing" textLength="111" x="294.5" y="528.704">Admin API client</text><line style="stroke:#181818;stroke-width:0.5;" x1="266.5" x2="407.5" y1="539.272" y2="539.272"/><line style="stroke:#181818;stroke-width:0.5;" x1="266.5" x2="407.5" y1="547.272" y2="547.272"/></g><!--class fe_user_apiclient--><g id="elem_fe_user_apiclient"><rect codeLine="32" fill="#F1F1F1" height="48" id="fe_user_apiclient" rx="2.5" ry="2.5" style="stroke:#181818;stroke-width:0.5;" width="130" x="272" y="90.602"/><ellipse cx="287" cy="106.602" fill="#ADD1B2" rx="11" ry="11" style="stroke:#181818;stroke-width:1.0;"/><path d="M286.4688,113.5239 Q284.7188,113.5239 283.5781,112.7895 Q282.4531,112.0395 281.8906,110.6957 Q281.3438,109.3364 281.3438,107.5395 Q281.3438,105.5082 282,104.0551 Q282.6563,102.602 283.9375,101.8207 Q285.2188,101.0395 287.0938,101.0395 Q287.9844,101.0395 288.6563,101.227 Q289.3281,101.3989 290.0156,101.7426 L289.2031,103.7582 Q288.5781,103.4457 288.0313,103.3207 Q287.5,103.1957 287.0156,103.1957 Q285.8438,103.1957 285.1406,103.727 Q284.4375,104.2582 284.1406,105.2114 Q283.8438,106.1645 283.8438,107.4301 Q283.8438,109.4457 284.5625,110.4145 Q285.2813,111.3676 286.875,111.3676 Q287.4688,111.3676 288.0938,111.2114 Q288.7188,111.0551 289.5469,110.6801 L289.5469,112.8989 Q288.8125,113.2114 288.0156,113.3676 Q287.2344,113.5239 286.4688,113.5239 Z " fill="#000000"/><text fill="#000000" font-family="sans-serif" font-size="14" lengthAdjust="spacing" textLength="98" x="301" y="112.034">User API client</text><line style="stroke:#181818;stroke-width:0.5;" x1="273" x2="401" y1="122.602" y2="122.602"/><line style="stroke:#181818;stroke-width:0.5;" x1="273" x2="401" y1="130.602" y2="130.602"/></g><!--class fe_page_login--><g id="elem_fe_page_login"><rect codeLine="6" fill="#F1F1F1" height="48" id="fe_page_login" rx="2.5" ry="2.5" style="stroke:#181818;stroke-width:0.5;" width="107" x="69.5" y="199.602"/><ellipse cx="84.5" cy="215.602" fill="#ADD1B2" rx="11" ry="11" style="stroke:#181818;stroke-width:1.0;"/><path d="M83.9688,222.5239 Q82.2188,222.5239 81.0781,221.7895 Q79.9531,221.0395 79.3906,219.6957 Q78.8438,218.3364 78.8438,216.5395 Q78.8438,214.5082 79.5,213.0551 Q80.1563,211.602 81.4375,210.8207 Q82.7188,210.0395 84.5938,210.0395 Q85.4844,210.0395 86.1563,210.227 Q86.8281,210.3989 87.5156,210.7426 L86.7031,212.7582 Q86.0781,212.4457 85.5313,212.3207 Q85,212.1957 84.5156,212.1957 Q83.3438,212.1957 82.6406,212.727 Q81.9375,213.2582 81.6406,214.2114 Q81.3438,215.1645 81.3438,216.4301 Q81.3438,218.4457 82.0625,219.4145 Q82.7813,220.3676 84.375,220.3676 Q84.9688,220.3676 85.5938,220.2114 Q86.2188,220.0551 87.0469,219.6801 L87.0469,221.8989 Q86.3125,222.2114 85.5156,222.3676 Q84.7344,222.5239 83.9688,222.5239 Z " fill="#000000"/><text fill="#000000" font-family="sans-serif" font-size="14" lengthAdjust="spacing" textLength="75" x="98.5" y="221.034">Login page</text><line style="stroke:#181818;stroke-width:0.5;" x1="70.5" x2="175.5" y1="231.602" y2="231.602"/><line style="stroke:#181818;stroke-width:0.5;" x1="70.5" x2="175.5" y1="239.602" y2="239.602"/></g><!--class fe_page_inhalers--><g id="elem_fe_page_inhalers"><rect codeLine="11" fill="#F1F1F1" height="48" id="fe_page_inhalers" rx="2.5" ry="2.5" style="stroke:#181818;stroke-width:0.5;" width="143" x="51.5" y="90.602"/><ellipse cx="66.5" cy="106.602" fill="#ADD1B2" rx="11" ry="11" style="stroke:#181818;stroke-width:1.0;"/><path d="M65.9688,113.5239 Q64.2188,113.5239 63.0781,112.7895 Q61.9531,112.0395 61.3906,110.6957 Q60.8438,109.3364 60.8438,107.5395 Q60.8438,105.5082 61.5,104.0551 Q62.1563,102.602 63.4375,101.8207 Q64.7188,101.0395 66.5938,101.0395 Q67.4844,101.0395 68.1563,101.227 Q68.8281,101.3989 69.5156,101.7426 L68.7031,103.7582 Q68.0781,103.4457 67.5313,103.3207 Q67,103.1957 66.5156,103.1957 Q65.3438,103.1957 64.6406,103.727 Q63.9375,104.2582 63.6406,105.2114 Q63.3438,106.1645 63.3438,107.4301 Q63.3438,109.4457 64.0625,110.4145 Q64.7813,111.3676 66.375,111.3676 Q66.9688,111.3676 67.5938,111.2114 Q68.2188,111.0551 69.0469,110.6801 L69.0469,112.8989 Q68.3125,113.2114 67.5156,113.3676 Q66.7344,113.5239 65.9688,113.5239 Z " fill="#000000"/><text fill="#000000" font-family="sans-serif" font-size="14" lengthAdjust="spacing" textLength="111" x="80.5" y="112.034">Inhaler list page</text><line style="stroke:#181818;stroke-width:0.5;" x1="52.5" x2="193.5" y1="122.602" y2="122.602"/><line style="stroke:#181818;stroke-width:0.5;" x1="52.5" x2="193.5" y1="130.602" y2="130.602"/></g><!--class fe_page_add--><g id="elem_fe_page_add"><rect codeLine="16" fill="#F1F1F1" height="48" id="fe_page_add" rx="2.5" ry="2.5" style="stroke:#181818;stroke-width:0.5;" width="149" x="45.5" y="342.132"/><ellipse cx="60.5" cy="358.132" fill="#ADD1B2" rx="11" ry="11" style="stroke:#181818;stroke-width:1.0;"/><path d="M59.9688,365.0539 Q58.2188,365.0539 57.0781,364.3195 Q55.9531,363.5695 55.3906,362.2257 Q54.8438,360.8664 54.8438,359.0695 Q54.8438,357.0382 55.5,355.5851 Q56.1563,354.132 57.4375,353.3507 Q58.7188,352.5695 60.5938,352.5695 Q61.4844,352.5695 62.1563,352.757 Q62.8281,352.9289 63.5156,353.2726 L62.7031,355.2882 Q62.0781,354.9757 61.5313,354.8507 Q61,354.7257 60.5156,354.7257 Q59.3438,354.7257 58.6406,355.257 Q57.9375,355.7882 57.6406,356.7414 Q57.3438,357.6945 57.3438,358.9601 Q57.3438,360.9757 58.0625,361.9445 Q58.7813,362.8976 60.375,362.8976 Q60.9688,362.8976 61.5938,362.7414 Q62.2188,362.5851 63.0469,362.2101 L63.0469,364.4289 Q62.3125,364.7414 61.5156,364.8976 Q60.7344,365.0539 59.9688,365.0539 Z " fill="#000000"/><text fill="#000000" font-family="sans-serif" font-size="14" lengthAdjust="spacing" textLength="117" x="74.5" y="363.564">Add inhaler page</text><line style="stroke:#181818;stroke-width:0.5;" x1="46.5" x2="193.5" y1="374.132" y2="374.132"/><line style="stroke:#181818;stroke-width:0.5;" x1="46.5" x2="193.5" y1="382.132" y2="382.132"/></g><!--class fe_page_edit--><g id="elem_fe_page_edit"><rect codeLine="21" fill="#F1F1F1" height="48" id="fe_page_edit" rx="2.5" ry="2.5" style="stroke:#181818;stroke-width:0.5;" width="148" x="46" y="507.272"/><ellipse cx="61" cy="523.272" fill="#ADD1B2" rx="11" ry="11" style="stroke:#181818;stroke-width:1.0;"/><path d="M60.4688,530.1939 Q58.7188,530.1939 57.5781,529.4595 Q56.4531,528.7095 55.8906,527.3657 Q55.3438,526.0064 55.3438,524.2095 Q55.3438,522.1782 56,520.7251 Q56.6563,519.272 57.9375,518.4907 Q59.2188,517.7095 61.0938,517.7095 Q61.9844,517.7095 62.6563,517.897 Q63.3281,518.0689 64.0156,518.4126 L63.2031,520.4282 Q62.5781,520.1157 62.0313,519.9907 Q61.5,519.8657 61.0156,519.8657 Q59.8438,519.8657 59.1406,520.397 Q58.4375,520.9282 58.1406,521.8814 Q57.8438,522.8345 57.8438,524.1001 Q57.8438,526.1157 58.5625,527.0845 Q59.2813,528.0376 60.875,528.0376 Q61.4688,528.0376 62.0938,527.8814 Q62.7188,527.7251 63.5469,527.3501 L63.5469,529.5689 Q62.8125,529.8814 62.0156,530.0376 Q61.2344,530.1939 60.4688,530.1939 Z " fill="#000000"/><text fill="#000000" font-family="sans-serif" font-size="14" lengthAdjust="spacing" textLength="116" x="75" y="528.704">Edit inhaler page</text><line style="stroke:#181818;stroke-width:0.5;" x1="47" x2="193" y1="539.272" y2="539.272"/><line style="stroke:#181818;stroke-width:0.5;" x1="47" x2="193" y1="547.272" y2="547.272"/></g><!--class be_userapi--><g id="elem_be_userapi"><rect codeLine="40" fill="#F1F1F1" height="67.0679" id="be_userapi" rx="2.5" ry="2.5" style="stroke:#181818;stroke-width:0.5;" width="315" x="477.5" y="332.602"/><ellipse cx="574.25" cy="348.602" fill="#B4A7E5" rx="11" ry="11" style="stroke:#181818;stroke-width:1.0;"/><path d="M570.2813,355.102 L570.2813,353.3989 L572.6406,353.1332 L572.6406,344.9301 L570.2813,344.6645 L570.2813,342.9614 L577.4219,342.9614 L577.4219,344.6645 L575,344.9301 L575,353.1332 L577.4219,353.3989 L577.4219,355.102 L570.2813,355.102 Z " fill="#000000"/><text fill="#000000" font-family="sans-serif" font-size="14" font-style="italic" lengthAdjust="spacing" textLength="113" x="594.75" y="354.034">User API endpoint</text><line style="stroke:#181818;stroke-width:0.5;" x1="478.5" x2="791.5" y1="364.602" y2="364.602"/><line style="stroke:#181818;stroke-width:0.5;" x1="478.5" x2="791.5" y1="372.602" y2="372.602"/><text fill="#000000" font-family="sans-serif" font-size="14" lengthAdjust="spacing" textLength="303" x="483.5" y="391.5679">GET /inhalers(query: InhalerQuery) : Inhalers</text></g><!--class be_adminapi--><g id="elem_be_adminapi"><rect codeLine="45" fill="#F1F1F1" height="105.2038" id="be_adminapi" rx="2.5" ry="2.5" style="stroke:#181818;stroke-width:0.5;" width="313" x="479.5" y="478.672"/><ellipse cx="569.25" cy="494.672" fill="#B4A7E5" rx="11" ry="11" style="stroke:#181818;stroke-width:1.0;"/><path d="M565.2813,501.172 L565.2813,499.4689 L567.6406,499.2032 L567.6406,491.0001 L565.2813,490.7345 L565.2813,489.0314 L572.4219,489.0314 L572.4219,490.7345 L570,491.0001 L570,499.2032 L572.4219,499.4689 L572.4219,501.172 L565.2813,501.172 Z " fill="#000000"/><text fill="#000000" font-family="sans-serif" font-size="14" font-style="italic" lengthAdjust="spacing" textLength="125" x="589.75" y="500.104">Admin API endpoint</text><line style="stroke:#181818;stroke-width:0.5;" x1="480.5" x2="791.5" y1="510.672" y2="510.672"/><line style="stroke:#181818;stroke-width:0.5;" x1="480.5" x2="791.5" y1="518.672" y2="518.672"/><text fill="#000000" font-family="sans-serif" font-size="14" lengthAdjust="spacing" textLength="287" x="485.5" y="537.6379">POST /admin (query: AdminQuery) : Admin</text><text fill="#000000" font-family="sans-serif" font-size="14" lengthAdjust="spacing" textLength="278" x="485.5" y="556.7058">PUT /admin (query: AdminQuery) : Admin</text><text fill="#000000" font-family="sans-serif" font-size="14" lengthAdjust="spacing" textLength="301" x="485.5" y="575.7738">DELETE /admin (query: AdminQuery) : Admin</text></g><!--link fe_page_inhalers to fe_page_login--><!--link fe_page_login to fe_page_add--><!--link fe_page_add to fe_page_edit--><!--link fe_user_apiclient to fe_admin_apiclient--><!--link be_userapi to be_adminapi--><!--link fe_page_inhalers to fe_user_apiclient--><g id="link_fe_page_inhalers_fe_user_apiclient"><path codeLine="63" d="M194.85,114.602 C219.75,114.602 241.49,114.602 265.82,114.602 " fill="none" id="fe_page_inhalers-to-fe_user_apiclient" style="stroke:#181818;stroke-width:1.0;stroke-dasharray:7.0,7.0;"/><polygon fill="#181818" points="271.82,114.602,262.82,110.602,266.82,114.602,262.82,118.602,271.82,114.602" style="stroke:#181818;stroke-width:1.0;"/><text fill="#000000" font-family="sans-serif" font-size="13" lengthAdjust="spacing" textLength="35" x="215.75" y="107.499">&#171;use&#187;</text></g><!--link fe_page_login to fe_admin_apiclient--><g id="link_fe_page_login_fe_admin_apiclient"><path codeLine="65" d="M165.33,248.032 C181.35,258.352 198.87,271.572 212,286.602 C272.85,356.232 311.429,455.0415 327.399,501.2215 " fill="none" id="fe_page_login-to-fe_admin_apiclient" style="stroke:#181818;stroke-width:1.0;stroke-dasharray:7.0,7.0;"/><polygon fill="#181818" points="329.36,506.892,330.1989,497.0789,327.7259,502.1666,322.6382,499.6935,329.36,506.892" style="stroke:#181818;stroke-width:1.0;"/><text fill="#000000" font-family="sans-serif" font-size="13" lengthAdjust="spacing" textLength="35" x="284.65" y="371.529">&#171;use&#187;</text></g><!--link fe_page_add to fe_admin_apiclient--><g id="link_fe_page_add_fe_admin_apiclient"><path codeLine="66" d="M146.49,390.312 C165.91,407.022 193.11,429.842 218,448.672 C245.17,469.222 272.0603,487.6449 295.9803,503.5149 " fill="none" id="fe_page_add-to-fe_admin_apiclient" style="stroke:#181818;stroke-width:1.0;stroke-dasharray:7.0,7.0;"/><polygon fill="#181818" points="300.98,506.832,295.6919,498.5232,296.8136,504.0677,291.2691,505.1895,300.98,506.832" style="stroke:#181818;stroke-width:1.0;"/><text fill="#000000" font-family="sans-serif" font-size="13" lengthAdjust="spacing" textLength="35" x="219" y="444.569">&#171;use&#187;</text></g><!--link fe_page_edit to fe_admin_apiclient--><g id="link_fe_page_edit_fe_admin_apiclient"><path codeLine="67" d="M194.38,531.272 C217.32,531.272 236.53,531.272 259.29,531.272 " fill="none" id="fe_page_edit-to-fe_admin_apiclient" style="stroke:#181818;stroke-width:1.0;stroke-dasharray:7.0,7.0;"/><polygon fill="#181818" points="265.29,531.272,256.29,527.272,260.29,531.272,256.29,535.272,265.29,531.272" style="stroke:#181818;stroke-width:1.0;"/><text fill="#000000" font-family="sans-serif" font-size="13" lengthAdjust="spacing" textLength="35" x="212.25" y="524.169">&#171;use&#187;</text></g><!--link fe_admin_apiclient to be_adminapi--><g id="link_fe_admin_apiclient_be_adminapi"><path codeLine="69" d="M409,531.272 C430.34,531.272 448.59,531.272 473.11,531.272 " fill="none" id="fe_admin_apiclient-to-be_adminapi" style="stroke:#181818;stroke-width:1.0;stroke-dasharray:7.0,7.0;"/><polygon fill="#181818" points="479.11,531.272,470.11,527.272,474.11,531.272,470.11,535.272,479.11,531.272" style="stroke:#181818;stroke-width:1.0;"/><text fill="#000000" font-family="sans-serif" font-size="13" lengthAdjust="spacing" textLength="35" x="426.5" y="524.169">&#171;use&#187;</text></g><!--link fe_user_apiclient to be_userapi--><g id="link_fe_user_apiclient_be_userapi"><path codeLine="70" d="M365.04,139.072 C418.35,183.722 529.8898,277.12 590.9998,328.29 " fill="none" id="fe_user_apiclient-to-be_userapi" style="stroke:#181818;stroke-width:1.0;stroke-dasharray:7.0,7.0;"/><polygon fill="#181818" points="595.6,332.142,591.2676,323.2972,591.7665,328.932,586.1316,329.4308,595.6,332.142" style="stroke:#181818;stroke-width:1.0;"/><text fill="#000000" font-family="sans-serif" font-size="13" lengthAdjust="spacing" textLength="35" x="494.45" y="228.999">&#171;use&#187;</text></g><!--SRC=[bLDTQy8m57tFhxZuulQWUnyYE5Q6q377b3sC8T543UlIBgaCaVtttQHDcwOLQf_knxddv7uqezilkkSmcB5l8M6dKfbpoGP0DUmuEHF0BtEWTxv1Py-rpLlB0WgO-RO9rHe6SRf7DWCecTR6NYScN67Ff3B_ICWmbmUQS0M9q7cRI1HPtOzhnXYK5MqgobW_beY9_38DnsmtZyTMlSVCUhQOOq1mcJiYQk9hceaYJ3og9i5AunFQzKSCNof7WcgD3sYu9M_SaWKkNktebdlq2CfIKGfi2W7a3tR-52tXpctavkV8rUaUolsz6kyMAb_xtNYIzKX2JJkKjkZYvGrLRHASfYMf5ArNurTNmH-ZE5f6VIliU8SnFQN77AXIwQycuQd2wECW6EFoaus27wBXTUBCaNfs9yPU86cTGOWDZupKUsr0_T6JuUev1iKJcejKTlGsLkDf-m9nHfC9XgPJ4lJeyC5Zl0A_s_veCuCUSDAHjLLUqqtse347TeEhiVy0]--></g></svg>